<svg class="svg-icon" style="width: 1em;height: 1em;vertical-align: middle;fill: currentColor;overflow: hidden;" viewBox="0 0 1024 1024" version="1.1" xmlns="http://www.w3.org/2000/svg"><path d="M659 128H365c-150.6 0-237 86.4-237 237v294c0 150.6 86.4 237 237 237h294c150.6 0 237-86.4 237-237V365c0-150.6-86.4-237-237-237zM512 752c-132.5 0-240-107.5-240-240s107.5-240 240-240 240 107.5 240 240-107.5 240-240 240z" fill="#8a8a8a" /><path d="M657 487H537V367c0-13.8-11.3-25-25-25-13.8 0-25 11.3-25 25v145c0 13.8 11.2 25 25 25h145c13.8 0 25-11.2 25-25s-11.2-25-25-25z" fill="#8a8a8a" /></svg>